<?xml version="1.0" standalone="no"?><!DOCTYPE svg PUBLIC "-//W3C//DTD SVG 1.1//EN" "http://www.w3.org/Graphics/SVG/1.1/DTD/svg11.dtd"><svg xmlns:xlink="http://www.w3.org/1999/xlink" version="1.1" class="highcharts-root" style="font-family:&quot;Lucida Grande&quot;, &quot;Lucida Sans Unicode&quot;, Arial, Helvetica, sans-serif;font-size:12px;" xmlns="http://www.w3.org/2000/svg" width="600" height="400"><desc>Created with Highcharts 9.0.1</desc><defs><clipPath id="highcharts-lbeue8s-13-"><rect x="0" y="0" width="580" height="339" fill="none"></rect></clipPath><clipPath id="highcharts-lbeue8s-15-"><rect x="10" y="46" width="580" height="339" fill="none"></rect></clipPath></defs><rect fill="#ffffff" class="highcharts-background" x="0" y="0" width="600" height="400" rx="0" ry="0"></rect><rect fill="none" class="highcharts-plot-background" x="10" y="46" width="580" height="339"></rect><g class="highcharts-pane-group" data-z-index="0"></g><rect fill="none" class="highcharts-plot-border" data-z-index="1" x="10" y="46" width="580" height="339"></rect><g class="highcharts-series-group" data-z-index="3"><g class="highcharts-series highcharts-series-0 highcharts-pie-series" data-z-index="0.1" opacity="1" transform="translate(10,46) scale(1 1)"><path fill="#7cb5ec" d="M 289.96822698022356 10.000003235656408 A 156 156 0 0 1 310.50075586664224 320.64707888898624 L 290 166 A 0 0 0 0 0 290 166 Z" transform="translate(0,0)" stroke="#ffffff" stroke-width="1" opacity="1" stroke-linejoin="round" class="highcharts-point highcharts-color-0"></path><path fill="#434348" d="M 310.3460985631507 320.6675023179031 A 156 156 0 0 1 145.92819546571653 225.82737783185235 L 290 166 A 0 0 0 0 0 290 166 Z" transform="translate(0,0)" stroke="#ffffff" stroke-width="1" opacity="1" stroke-linejoin="round" class="highcharts-point highcharts-color-1"></path><path fill="#90ed7d" d="M 145.8684401337522 225.68327613764365 A 156 156 0 0 1 289.7833191296608 10.000150482763502 L 290 166 A 0 0 0 0 0 290 166 Z" transform="translate(0,0)" stroke="#ffffff" stroke-width="1" opacity="1" stroke-linejoin="round" class="highcharts-point highcharts-color-2"></path></g><g class="highcharts-markers highcharts-series-0 highcharts-pie-series" data-z-index="0.1" opacity="1" transform="translate(10,46) scale(1 1)"></g></g><text x="300" text-anchor="middle" class="highcharts-title" data-z-index="4" style="color:#333333;font-size:18px;fill:#333333;" y="24">Heading of Chart</text><text x="300" text-anchor="middle" class="highcharts-subtitle" data-z-index="4" style="color:#666666;fill:#666666;" y="45"></text><text x="10" text-anchor="start" class="highcharts-caption" data-z-index="4" style="color:#666666;fill:#666666;" y="397"></text><g class="highcharts-data-labels highcharts-series-0 highcharts-pie-series" data-z-index="6" opacity="1" transform="translate(10,46) scale(1 1)"><path fill="none" class="highcharts-data-label-connector highcharts-color-0" stroke="#7cb5ec" stroke-width="1" d="M 480.6017597223803 153.83501796319345 C 475.6017597223803 153.83501796319345 457.64029910408544 155.012274289336 451.6531455646538 155.40469306471687 L 445.6659920252222 155.79711184009773"></path><path fill="none" class="highcharts-data-label-connector highcharts-color-1" stroke="#434348" stroke-width="1" d="M 192 327.0807251039056 C 197 327.0807251039056 205.99999999999997 311.4922678357857 208.99999999999997 306.29611541307906 L 211.99999999999997 301.09996299037243"></path><path fill="none" class="highcharts-data-label-connector highcharts-color-2" stroke="#90ed7d" stroke-width="1" d="M 130.3466521117266 62.663936658353975 C 135.3466521117266 62.663936658353975 150.3131051331724 72.66420085270683 155.30192280698768 75.99762225082443 L 160.29074048080295 79.33104364894204"></path><g class="highcharts-label highcharts-data-label highcharts-data-label-color-0" data-z-index="1" transform="translate(486,144)"><text x="5" data-z-index="1" y="16" style="color:#000000;font-size:11px;font-weight:bold;fill:#000000;"><tspan class="highcharts-text-outline" fill="#FFFFFF" stroke="#FFFFFF" stroke-width="2px" stroke-linejoin="round" style=""><tspan style="font-weight:bold;">a</tspan>: 23<tspan x="5" y="16">​</tspan></tspan><tspan style="font-weight:bold;">a</tspan>: 23</text></g><g class="highcharts-label highcharts-data-label highcharts-data-label-color-1" data-z-index="1" transform="translate(146,317)"><text x="5" data-z-index="1" y="16" style="color:#000000;font-size:11px;font-weight:bold;fill:#000000;"><tspan class="highcharts-text-outline" fill="#FFFFFF" stroke="#FFFFFF" stroke-width="2px" stroke-linejoin="round" style=""><tspan style="font-weight:bold;">b</tspan>: 10<tspan x="5" y="16">​</tspan></tspan><tspan style="font-weight:bold;">b</tspan>: 10</text></g><g class="highcharts-label highcharts-data-label highcharts-data-label-color-2" data-z-index="1" transform="translate(85,53)"><text x="5" data-z-index="1" y="16" style="color:#000000;font-size:11px;font-weight:bold;fill:#000000;"><tspan class="highcharts-text-outline" fill="#FFFFFF" stroke="#FFFFFF" stroke-width="2px" stroke-linejoin="round" style=""><tspan style="font-weight:bold;">c</tspan>: 15<tspan x="5" y="16">​</tspan></tspan><tspan style="font-weight:bold;">c</tspan>: 15</text></g></g><g class="highcharts-legend" data-z-index="7"><rect fill="none" class="highcharts-legend-box" rx="0" ry="0" x="0" y="0" width="8" height="8" visibility="hidden"></rect><g data-z-index="1"><g></g></g></g><text x="590" class="highcharts-credits" text-anchor="end" data-z-index="8" style="cursor:pointer;color:#999999;font-size:9px;fill:#999999;" y="395">Highcharts.com</text><g class="highcharts-control-points" data-z-index="99" clip-path="url(#highcharts-lbeue8s-15-)"></g></svg>