<?xml version="1.0" standalone="no"?><!DOCTYPE svg PUBLIC "-//W3C//DTD SVG 1.1//EN" "http://www.w3.org/Graphics/SVG/1.1/DTD/svg11.dtd"><svg xmlns:xlink="http://www.w3.org/1999/xlink" version="1.1" class="highcharts-root" style="font-family:&quot;Lucida Grande&quot;, &quot;Lucida Sans Unicode&quot;, Arial, Helvetica, sans-serif;font-size:12px;" xmlns="http://www.w3.org/2000/svg" width="600" height="400"><desc>Created with Highcharts 9.0.1</desc><defs><clipPath id="highcharts-53g98rk-13-"><rect x="0" y="0" width="580" height="339" fill="none"></rect></clipPath><clipPath id="highcharts-53g98rk-15-"><rect x="10" y="46" width="580" height="339" fill="none"></rect></clipPath></defs><rect fill="#ffffff" class="highcharts-background" x="0" y="0" width="600" height="400" rx="0" ry="0"></rect><rect fill="none" class="highcharts-plot-background" x="10" y="46" width="580" height="339"></rect><g class="highcharts-pane-group" data-z-index="0"></g><rect fill="none" class="highcharts-plot-border" data-z-index="1" x="10" y="46" width="580" height="339"></rect><g class="highcharts-series-group" data-z-index="3"><g class="highcharts-series highcharts-series-0 highcharts-pie-series" data-z-index="0.1" opacity="1" transform="translate(10,46) scale(1 1)"><path fill="#7cb5ec" d="M 289.97026371226053 10.000003028242531 A 146 146 0 0 1 380.1820946702766 270.8180726230904 L 290 156 A 0 0 0 0 0 290 156 Z" transform="translate(0,0)" stroke="#ffffff" stroke-width="1" opacity="1" stroke-linejoin="round" class="highcharts-point highcharts-color-0"></path><path fill="#434348" d="M 380.0672315257463 270.9081972936988 A 146 146 0 0 1 260.25008163120293 298.93684744337236 L 290 156 A 0 0 0 0 0 290 156 Z" transform="translate(0,0)" stroke="#ffffff" stroke-width="1" opacity="1" stroke-linejoin="round" class="highcharts-point highcharts-color-1"></path><path fill="#90ed7d" d="M 260.1071596825403 298.9070260615441 A 146 146 0 0 1 289.7972089290416 10.000140836432507 L 290 156 A 0 0 0 0 0 290 156 Z" transform="translate(0,0)" stroke="#ffffff" stroke-width="1" opacity="1" stroke-linejoin="round" class="highcharts-point highcharts-color-2"></path></g><g class="highcharts-markers highcharts-series-0 highcharts-pie-series" data-z-index="0.1" opacity="1" transform="translate(10,46) scale(1 1)"></g></g><text x="300" text-anchor="middle" class="highcharts-title" data-z-index="4" style="color:#333333;font-size:18px;fill:#333333;" y="24">Heading of Chart</text><text x="300" text-anchor="middle" class="highcharts-subtitle" data-z-index="4" style="color:#666666;fill:#666666;" y="45"></text><text x="10" text-anchor="start" class="highcharts-caption" data-z-index="4" style="color:#666666;fill:#666666;" y="397"></text><g class="highcharts-data-labels highcharts-series-0 highcharts-pie-series" data-z-index="6" opacity="1" transform="translate(10,46) scale(1 1)"><path fill="none" class="highcharts-data-label-connector highcharts-color-0" stroke="#7cb5ec" stroke-width="1" d="M 461.360104492124 98.5516263644514 C 456.360104492124 98.5516263644514 439.3460028963386 104.4270282135416 433.67463569774344 106.38549549657166 L 428.0032684991483 108.34396277960172"></path><path fill="none" class="highcharts-data-label-connector highcharts-color-1" stroke="#434348" stroke-width="1" d="M 335.0063636989864 327.3927970002953 C 330.0063636989864 327.3927970002953 325.9148037752261 309.8639882161742 324.55095046730617 304.0210519548005 L 323.1870971593862 298.1781156934268"></path><path fill="none" class="highcharts-data-label-connector highcharts-color-2" stroke="#90ed7d" stroke-width="1" d="M 109.93622643326407 137.8705988909008 C 114.93622643326407 137.8705988909008 132.84047600258933 139.72474218614957 138.8085591923644 140.3427899512325 L 144.7766423821395 140.96083771631544"></path><g class="highcharts-label highcharts-data-label highcharts-data-label-color-0" data-z-index="1" transform="translate(466,89)"><text x="5" data-z-index="1" y="16" style="color:#000000;font-size:11px;font-weight:bold;fill:#000000;"><tspan class="highcharts-text-outline" fill="#FFFFFF" stroke="#FFFFFF" stroke-width="2px" stroke-linejoin="round" style=""><tspan style="font-weight:bold;">a</tspan>: 54<tspan x="5" y="16">​</tspan></tspan><tspan style="font-weight:bold;">a</tspan>: 54</text></g><g class="highcharts-label highcharts-data-label highcharts-data-label-color-1" data-z-index="1" transform="translate(340,317)"><text x="5" data-z-index="1" y="16" style="color:#000000;font-size:11px;font-weight:bold;fill:#000000;"><tspan class="highcharts-text-outline" fill="#FFFFFF" stroke="#FFFFFF" stroke-width="2px" stroke-linejoin="round" style=""><tspan style="font-weight:bold;">b</tspan>: 19<tspan x="5" y="16">​</tspan></tspan><tspan style="font-weight:bold;">b</tspan>: 19</text></g><g class="highcharts-label highcharts-data-label highcharts-data-label-color-2" data-z-index="1" transform="translate(65,128)"><text x="5" data-z-index="1" y="16" style="color:#000000;font-size:11px;font-weight:bold;fill:#000000;"><tspan class="highcharts-text-outline" fill="#FFFFFF" stroke="#FFFFFF" stroke-width="2px" stroke-linejoin="round" style=""><tspan style="font-weight:bold;">c</tspan>: 64<tspan x="5" y="16">​</tspan></tspan><tspan style="font-weight:bold;">c</tspan>: 64</text></g></g><g class="highcharts-legend" data-z-index="7"><rect fill="none" class="highcharts-legend-box" rx="0" ry="0" x="0" y="0" width="8" height="8" visibility="hidden"></rect><g data-z-index="1"><g></g></g></g><text x="590" class="highcharts-credits" text-anchor="end" data-z-index="8" style="cursor:pointer;color:#999999;font-size:9px;fill:#999999;" y="395">Highcharts.com</text><g class="highcharts-control-points" data-z-index="99" clip-path="url(#highcharts-53g98rk-15-)"></g></svg>